/* XPM */
static char *grinch1702682027[] = {
/* columns rows colors chars-per-pixel */
"50 50 204 2 ",
"   c #0B080C",
".  c #161717",
"X  c #0E140D",
"o  c #1C2418",
"O  c #182614",
"+  c #162B0F",
"@  c #23351D",
"#  c #233A1A",
"$  c #202A1E",
"%  c #201924",
"&  c #282829",
"*  c #293924",
"=  c #353535",
"-  c #313130",
";  c #50040F",
":  c #7B011C",
">  c #73001B",
",  c #580F24",
"<  c #721D32",
"1  c #791B33",
"2  c #6C152B",
"3  c #572B39",
"4  c #6A2738",
"5  c #7B273B",
"6  c #29491C",
"7  c #2E4B23",
"8  c #2C4424",
"9  c #324C29",
"0  c #375B2B",
"q  c #365A2A",
"w  c #3C4B39",
"e  c #3F5B36",
"r  c #3D652E",
"t  c #3C682E",
"y  c #376A28",
"u  c #3E732D",
"i  c #3E6034",
"p  c #425B3B",
"a  c #40523C",
"s  c #404F3A",
"d  c #427333",
"f  c #467F34",
"g  c #416038",
"h  c #453E47",
"j  c #753848",
"k  c #643240",
"l  c #474847",
"z  c #495B43",
"x  c #4F4A53",
"c  c #554C56",
"v  c #5A565C",
"b  c #5D454E",
"n  c #6C4D56",
"m  c #65535A",
"M  c #744251",
"N  c #4E6645",
"B  c #526A4A",
"V  c #58764E",
"C  c #5D7854",
"Z  c #536A4C",
"A  c #617B58",
"S  c #606D5C",
"D  c #5E5A62",
"F  c #615D63",
"G  c #6D5C63",
"H  c #745F66",
"J  c #646165",
"K  c #69656B",
"L  c #6C696E",
"P  c #6D7869",
"I  c #726E74",
"U  c #727273",
"Y  c #777279",
"T  c #7A767C",
"R  c #7D7B7D",
"E  c #767876",
"W  c #74656D",
"Q  c #900218",
"!  c #AB0015",
"~  c #870D28",
"^  c #9D0021",
"/  c #980C24",
"(  c #961632",
")  c #A60023",
"_  c #AC0023",
"`  c #B30123",
"'  c #BD0025",
"]  c #8A283F",
"[  c #D2001A",
"{  c #C10027",
"}  c #CC0028",
"|  c #D30029",
" . c #DB002B",
".. c #E2002B",
"X. c #EF002D",
"o. c #E10020",
"O. c #F5002D",
"+. c #FA002E",
"@. c #FF0030",
"#. c #8E2840",
"$. c #894457",
"%. c #85767D",
"&. c #856471",
"*. c #478932",
"=. c #518C3E",
"-. c #52943D",
";. c #4C9536",
":. c #56A53C",
">. c #589A43",
",. c #5D8C4E",
"<. c #64885A",
"1. c #5BA344",
"2. c #5DAA45",
"3. c #57A240",
"4. c #5FB346",
"5. c #62B647",
"6. c #62B448",
"7. c #66BA4B",
"8. c #69BE4E",
"9. c #62B946",
"0. c #60AC47",
"q. c #6E9262",
"w. c #6F9C61",
"e. c #739A67",
"r. c #7B9D70",
"t. c #79A26B",
"y. c #7CB669",
"u. c #6AC44D",
"i. c #6CC451",
"p. c #75CB5A",
"a. c #74C959",
"s. c #76D259",
"d. c #7FD363",
"f. c #84B474",
"g. c #8BBB7B",
"h. c #83D669",
"j. c #8FCB7B",
"k. c #8BD872",
"l. c #91D37B",
"z. c #98E37F",
"x. c #7F7B80",
"c. c #7F7681",
"v. c #827D83",
"b. c #837687",
"n. c #927C86",
"m. c #838184",
"M. c #878388",
"N. c #8C8A8C",
"B. c #89868A",
"V. c #8A8D90",
"C. c #938E94",
"Z. c #998E9D",
"A. c #99949B",
"S. c #979698",
"D. c #91A28A",
"F. c #9B9EA1",
"G. c #A19DA2",
"H. c #A4A4A5",
"J. c #AAA6AB",
"K. c #ABAAAB",
"L. c #A5A4AA",
"P. c #B4B3B4",
"I. c #BAB4BC",
"U. c #BCBCBC",
"Y. c #98CD85",
"T. c #99D386",
"R. c #9BD588",
"E. c #A1DD8D",
"W. c #9CEB82",
"Q. c #A3E18E",
"!. c #A6E491",
"~. c #AAEA93",
"^. c #ACF494",
"/. c #B4FB9C",
"(. c #B8FE9F",
"). c #B2F69A",
"_. c #A3F18A",
"`. c #BBFFA2",
"'. c #B7F8A0",
"]. c #C4FFAA",
"[. c #B7BEC0",
"{. c #C0BCC2",
"}. c #C3BBC7",
"|. c #BFCED0",
" X c #B6C6C8",
".X c #C4C3C5",
"XX c #CCCACD",
"oX c #C7C1C8",
"OX c #CFD1CF",
"+X c #D3CED4",
"@X c #D6D5D6",
"#X c #DCDCDC",
"$X c #D8D3D9",
"%X c #DFDEE1",
"&X c #E1DCE2",
"*X c #E4E4E4",
"=X c #E9E6EA",
"-X c #EDECED",
";X c #EFEEF0",
":X c #F2EFF3",
">X c #ECF3F3",
",X c #F5F5F5",
"<X c #FCFCFC",
"1X c #F4F9FA",
/* pixels */
"<X<X<X<X<X<X<X<X<X<X<X<X<X<X<X<X<X<X<X<X<X<X<X<X<X<X<X<X<X<X<X<X<X<X<X<X<X<X<X<X<X<X<X<X<X<X<X<X<X<X",
"<X<X<X<X<X<X<X<X<X<X<X<X<X<X<X<X<X<X<X<X<X<X<X<X<X<X<X@XP.C.v.%.A.1X<X<X<X<X<X<X<X<X<X<X<X<X<X<X<X<X",
"<X<X<X<X<X<X<X<X<X<X<X<X<X<X<X<X<X<X<X<X<X<X<X<X=XC.M ~ `  .....{ x.<X<X<X<X<X<X<X<X<X<X<X<X,X<X<X<X",
"<X<X<X<X<X<X<X<X<X<X<X<X<X<X<X<X<X<X<X<X<X<X,XN.~  .+.+.+.+.+.+.@.; <X<X<X<X<X<X<X<X<X<X,X,X<X<X<X<X",
"<X<X<X<X<X<X<X<X<X<X<X<X<X<X<X<X<X<X<X<X<X*Xk | @.+.+.@.+.+.+.+.+.| F.<X<X<X<X<X<X,X<X,X1X,X,X<X<X<X",
"<X<X<X<X<X<X<X<X<X<X<X<X<X<X<X<X<X<X<X<XXX< @.+.+.+.+._ +.+.O.+.+.+.5 #X,X1X<X<X<X<X<X,X<X,X,X<X<X<X",
"<X<X<X<X<X<X<X<X<X<X<X<X1X<X<X<X<X<X<X#X2 +.+.+.+.+.+.: O.+.+.+.+.+.X.4 *X<X<X1X<X,X<X<X1X<X,X,X<X<X",
"<X<X<X<X<X<X<X<X<X,X<X<X,X<X<X<X<X<X#X2 @.+.+.+.+.O.+.) ' @.O.+.O.+.+.O.< U.1X<X<X<X<X,X<X,X,X<X<X<X",
"<X<X<X<X<X<X,X,X<X,X<X<X<X<X1X1X<X=X4 +.@.O.+.+.+.+.+.O.> ' @.+.+.+.+.+.+.^ M.<X<X<X,X<X,X<X,X<X<X<X",
"<X<X,X<X<X,X<X<X<X<X<X<X<X<X<X<X1X3 O.+.O.+.+.O.+.O.+.| @., 4 { +.+.+.+.+.+.} n :X<X<X<X<X<X<X,X<X<X",
"<X,X,X<X,X<X,X<X,X<X<X<X<X<X<X,Xn O.@.O.+.+.+.+.+.+.@.> +.m <XK.H 5 _ O.@.+.+...b <X<X<X<X<X<X<X<X<X",
",X<X,X,X,X<X,X,X<X<X,X<X<X1X<XB.} +.+.+.O.+.+.O.+.O.+.| : A.<X<X<X,X{.H ) +.+.+. .N.,X<X<X,X,X<X,X<X",
"1X,X,X,X<X,X,X<X,X<XXXH.-X<X*XQ +.+.+.+.+.+.O.+.+.+.+.+.` XX<X<X<X<X<X<XU.4 +.+.+.j -X,X,X<X,X1X<X<X",
"<X,X,X,X,X,X,X%XK K C.@XF A.D $./ +.+.O.+.O.+.+.+.+.+.+.) *X<X<X<X<X<X1X1X@X> +.+.( #X,X,X,X,X<X<X<X",
",X,X1X<X,X,X;XK <X<X<X<XXX#X<X<X X: @.+.O.+.O.+.+.+.+.+.) #X<X<X<X<X<X,X,X,XU.) +.( #X,X,X,X,X,X<X<X",
"<X,X,X,X,X,XoX{.<X<X<X<X<X<X<X<X<XB.[ +.@.+.+.+.+.O.+.+. .J.<X<X<X<X,X,X,X-X-XJ +.M -X,X;X,X,X,X,X<X",
"<X,X,X,X,X,X.X{.<X<X<X<X<X<X<X<X<X,X, 1 +.+.+.+.+.+.+.+.@.c <X<X<X1X,X*X;X-X-XoX; V.>X;X,X,X,X,X<X<X",
"<X<X,X<X,X,X,Xv <X<X<X<X<X<X<X<X<X<X>XXX; ] ] ! +.+.o.o.+./ A.#XY T Y c -X-X*XT S.U C.*X,X,X,X,X<X<X",
"<X,X,X,X1X,X,XD <X<X<X<X<X<X<X<X<X<X<X1X X1X1XV.! ] %.&.Q M .XR [.<X<Xc -X-X*XL <X*X*XJ ,X,X,X,X<X<X",
"<X,X,X,X<X1X<XF <XXX<X1X<X<XA.oX<X<X<X<X<X<X<X<XE ;X<X<XK.,X<X<X<X<X<Xx -X-X*XE <X<X%.U.,X,X,X1X<X<X",
",X<X,X,X<X,X<X*Xv.v.T F I.I.. . }.<X<X<X<X<X<X<X<X<X<X<X<X<X<X<X<X-X=XF :X;X=XI x.#Xl ,X,X<X<X<X<X<X",
"<X,X,X<X<X<X<X<X<X<X,XA.& $   # o J S.C.c XX<X<X<X<X<X<X<X<XJ.=X$XL N.#X,X,X,X*X%XN.U.,X,X<X<X<X<X<X",
"<X,X<X<X<X<X<X<X<X1XZ >.3.8.-.o q 6 6 # O - %X:X[.%.@Xl U S.  - @ E -X,X,X,X,X,X1X,X1X,X<X<X<X<X<X<X",
"<X<X<X<X<X<X<X<X<XJ 0 $ f 8.u.d   8 r r r 7 . N d + @ 6 X X -.u.s.6 v ;X,X,X1X,X<X<X<X<X<X<X<X<X<X<X",
"<X<X<X<X<X<X<X<X<XP.& 3.8.7.7.1.= & o # q r 6 5.r 7 6 - A.y i.2.e 0 v ,X,X1X,X<X<X<X<X<X<X<X<X<X<X<X",
"<X<X<X<X<X<X<X<X<Xm.2.6.7.5.5.2.q.D.r.Y - # 9 2.. o J 1Xb.1.9.2.s U.F =X1X<X<X<X<X<X<X<X<X<X<X<X<X<X",
"<X<X<X<X<X<X<X<X=XV @ 3.6.l.W.h.d c.OX<X<Xc.O q & f.oXI.g s.k.7.2.U ,X<X<X,X<X<X<X<X<X<X<X<X<X<X<X<X",
"<X<X<X<X<X<X<X<X%X9 % u.p.!.g.j.k.,.S M.B.A 8 . N p B u p.Q.R.z.u.* ,X,X<X<X<X<X<X<X<X<X<X<X<X<X<X<X",
"<X<X<X<X<X<X,X,X%XK J 9.k.Y.e.N C j.h.3.:.u O # 9 ;.9.a.w.Z z R.a.0 ,X<X<X<X<X<X<X<X<X<X<X<X<X<X<X<X",
"<X<X<X<X<X<X<X,X;X=XK.-.a.].).C '.!.`.)._.j.B 8 * y.z.~.f.R.g./.p.0 ,X<X<X<X<X<X<X<X<X<X<X<X<X<X<X<X",
"<X<X<X<X<X<X,X,X,X-X*Xe 4.).].w `.(././.'.`.`.Q.p ].(.(.(.T.f.).s.* <X<X<X<X<X<X<X<X<X<X<X<X<X<X<X<X",
"<X<X<X<X<X<X<X,X,X>X;Xx.2.h.`.t.g././././././.].z `./././.T.f.).4.K <X<X<X<X<X<X<X<X<X<X<X<X<X<X<X<X",
"<X<X<X<X<X<X,X<X,X,X,X*Xw s._.^.Z ).`././././.`.C !.(./.`.q.E.k.t @X<X<X<X<X<X<X<X<X<X<X<X<X<X<X<X<X",
"<X<X<X<X<X<X<X,X,X*XK.-X{.t p.(.R.N !.`./././.`.q.T./.(.!.N ).2.U ,X1X<X<X<X<X<X<X<X<X<X<X<X<X<X<X<X",
"<X<X<X<X<X<X<X1X<XU .XI U.P.d h.`.!.V f.`.(.).`.r.Y.(.).z ^.a.w -X,X,X<X<X<X<X,X,X<X<X<X<X<X<X<X<X<X",
"<X<X<X<X1X<X<X<XG.J <X<XJ.m.N.d p.^./.q.A E.`.`.t.Y.).V Y.a.w *X,X<X,X1X,X<X,X,X,X,X,X<X<X<X<X<X<X<X",
"<X<X<X<X<X<X<XT +X<X<X<X<X-XB.h d i.k./.R.C e.~.,.r.V y.-.o H.<X<X,X,X<X,X,X,X,X,X,X<X,X<X<X<X<X<X<X",
"<X<X<X<X<X<X1XL <X<X<X<X<X<X<XP.% t 7.8.h.W.y.<.V ,.2.9 h J.M..X<X,X,X,X,X,X,X,X,X:X,X<X<X<X<X1X<X<X",
"<X<X<X<X<X<X<XG.T R v.C.<X<X<X<X=Xl *.7.6.6.i.p.>.B P }.<X<X&XB.L -X,X,X;X,X;X;X:X,X,X,X,X<X1X<X<X<X",
"<X<X<X<X<X<X<X<X1X<X,XP.B.G.J.<X<X,Xl 6.8.7.7.u.% <X<X<X<X<X<X<XI.U.:X;X;X;X;X,X;X,X,X,X,X,X<X,X<X<X",
"<X<X<X<X<X<X<X<X<X<X<X1X#XU.m.<X<X<XoXp ;.7.u.*.b.G.B.*X<X<X<X,Xv =X,X-X-X-X-X,X,X,X,X,X<X<X,X<X<X<X",
"<X<X<X<X<X<X<X<X<X<X<X<X<X<XF ,X;X<X<X&XC.p 1.+ A.}.*X,X<X<X<X@XK.,X,X,X,X,X,X,X,X,X,X,X,X,X<X,X<X<X",
"<X<X<X<X<X<X<X<X<X<X<X<X<X<X*XM.v ,X<X<X<X+Xx C.S.J.<X<X<X<XM.B.,X1X,X,X,X,X<X,X<X,X<X<X,X,X,X<X<X<X",
"<X<X<X<X<X<X<X<X<X<X<X<X<X<X<X<X*Xv.I.<X<X-XC.<X<X<X<X<X{.R K.<X1X<X<X<X,X<X<X<X<X<X<X,X<X,X<X<X<X<X",
"<X<X<X<X<X<X<X<X<X<X<X<X,X<X<X<X<X-XL.<X<X,X<X<X<X<X<X@XC.-X<X<X<X<X<X<X<X<X<X<X<X<X<X1X,X<X<X<X<X<X",
"<X<X<X<X<X,X,X<X,X<X,X<X<X,X<X,X<X,XI -XXX,X<X<X<X,X[.L -X<X<X<X<X<X<X<X<X<X<X<X<X<X<X<X<X<X<X<X<X<X",
"<X<X<X<X,X<X<X,X,X,X,X,X,X,X,X<X<X1XXXB.x ,X<X<X<XL P.,X<X<X<X<X<X<X<X<X<X<X<X<X<X<X<X<X<X<X<X<X<X<X",
"<X<X<X<X<X1X,X<X,X,X,X,X<X<X,X<X<X<X<X<XK D {.:XM.{.<X<X<X<X<X<X<X<X<X<X<X<X<X<X<X<X<X<X<X<X<X<X<X<X",
"<X<X,X<X,X,X,X<X,X,X,X,X,X1X,X<X<X<X<X<X-X,XS.v.XX<X<X<X<X<X<X<X<X<X<X<X<X<X<X<X<X<X<X<X<X<X<X<X<X<X",
"<X,X<X<X<X<X<X,X<X,X,X<X,X1X<X<X<X<X<X<X<X<X<X<X<X<X<X<X<X<X<X<X<X<X<X<X<X<X<X<X<X<X<X<X<X<X<X<X<X,X"
};
