/* XPM */
static char *chemine1702681996[] = {
/* columns rows colors chars-per-pixel */
"50 50 151 2 ",
"   c #5D3632",
".  c #563C3A",
"X  c #583B39",
"o  c #6B352D",
"O  c #643734",
"+  c #6C3935",
"@  c #723E3A",
"#  c #783F3B",
"$  c #52413F",
"%  c #77433C",
"&  c #7A413D",
"*  c #4E4E4E",
"=  c #524746",
"-  c #514A4A",
";  c #545454",
":  c #565959",
">  c #5B5B5B",
",  c #7D4541",
"<  c #7E4C45",
"1  c #7E5347",
"2  c #7F5448",
"3  c #7F5B49",
"4  c #646464",
"5  c #6A6A6A",
"6  c gray46",
"7  c #7B7B7B",
"8  c #814643",
"9  c #814D46",
"0  c #844E49",
"q  c #894F4D",
"w  c #805147",
"e  c #84514A",
"r  c #8A504E",
"t  c #805949",
"y  c #835552",
"u  c #8C5250",
"i  c #845954",
"p  c #8A5B57",
"a  c #875F5A",
"s  c #AC5C56",
"d  c #B25750",
"f  c #B55C54",
"g  c #BB5C54",
"h  c #A7615C",
"j  c #936C65",
"k  c #9B6963",
"l  c #867474",
"z  c #9B7673",
"x  c #A26763",
"c  c #A06863",
"v  c #B97767",
"b  c #B77B66",
"n  c #BF7E6B",
"m  c #B37F77",
"M  c #C45F57",
"N  c #C85F58",
"B  c #C2635C",
"V  c #CB635B",
"C  c #C06661",
"Z  c #D66D65",
"A  c #D86E66",
"S  c #C3746D",
"D  c #C57C6D",
"F  c #DD746A",
"G  c #CA7772",
"H  c #CC7A73",
"J  c #E77D75",
"K  c #E97F77",
"L  c #A1837F",
"P  c #DB827C",
"I  c #DB8A7B",
"U  c #D99076",
"Y  c #E48078",
"T  c #EC847C",
"R  c #E4897E",
"E  c #EB8D7B",
"W  c #F1847C",
"Q  c #E9967B",
"!  c #EE997F",
"~  c #838383",
"^  c #8B8B8B",
"/  c #998482",
"(  c #998E8D",
")  c #9A908F",
"_  c #8F9495",
"`  c #939393",
"'  c #9C9494",
"]  c #9D9D9D",
"[  c #9F9FA1",
"{  c #A3A3A3",
"}  c #A4AAAA",
"|  c #ABACAC",
" . c #B4B4B4",
".. c #BCBCBC",
"X. c #D89087",
"o. c #D1908B",
"O. c #D9928D",
"+. c #C29693",
"@. c #DC9790",
"#. c #D99E90",
"$. c #E48B80",
"%. c #EC8981",
"&. c #F38B84",
"*. c #F98C86",
"=. c #EE9683",
"-. c #EE9C85",
";. c #F19485",
":. c #FC9087",
">. c #F19A87",
",. c #F69689",
"<. c #FC958D",
"1. c #F59B89",
"2. c #FA998C",
"3. c #FF9691",
"4. c #FF9A93",
"5. c #EDA386",
"6. c #ECAA86",
"7. c #EFA889",
"8. c #F2A289",
"9. c #F1AC8B",
"0. c #EDB189",
"q. c #F0B48C",
"w. c #C2A7A2",
"e. c #C2AFAD",
"r. c #C6B4B2",
"t. c #CBB9B7",
"y. c #E4B5B2",
"u. c #E4B9B6",
"i. c #E3BCB9",
"p. c #E7C2BF",
"a. c #C4C4C4",
"s. c #CCCCCC",
"d. c #D4D4D4",
"f. c #DCD1D1",
"g. c #DBDBDB",
"h. c #E6C6C3",
"j. c #E9C8C6",
"k. c #ECD0CD",
"l. c #EDD4D2",
"z. c #E3DADA",
"x. c #EADCDB",
"c. c #E3E3E3",
"v. c #ECE3E2",
"b. c gray91",
"n. c #F2E5E4",
"m. c #F1E8E7",
"M. c #F5ECEB",
"N. c #F8EDEC",
"B. c #F6F6F6",
"V. c #FAF6F6",
"C. c #FDFDFD",
/* pixels */
"C.C.C.C.C.C.C.C.C.C.C.C.C.C.C.C.C.C.C.C.C.C.C.C.C.C.C.C.C.C.C.C.C.C.C.C.C.C.C.C.C.C.C.C.C.C.C.C.C.C.",
"C.C.C.C.C.C.C.C.C.C.C.C.C.C.C.C.C.C.C.C.C.C.C.C.C.C.C.C.C.C.C.C.C.C.C.C.C.C.C.C.C.C.C.C.C.C.C.C.C.C.",
"C.C.C.C.C.C.C.C.C.C.C.C.C.C.C.C.C.C.C.C.C.C.C.C.C.C.C.C.C.C.C.C.C.C.C.C.C.C.C.C.C.C.C.C.C.B.B.C.C.C.",
"C.C.C.C.C.C.C.C.C.C.C.C.C.C.C.C.C.C.C.C.C.C.C.C.C.C.C.C.C.C.C.C.C.B.C.C.C.C.C.C.C.C.C.B.B.C.B.C.C.C.",
"C.C.C.C.C.C.C.C.C.C.C.C.C.C.C.C.C.C.C.C.C.C.C.C.b.s.a.d.C.C.C.C.C.C.C.C.C.C.V.C.C.C.B.C.B.B.C.B.C.C.",
"C.C.C.C.C.C.C.C.C.C.C.C.C.C.C.C.C.C.C.b.d.a. ...a.d.g.s. ...c.C.C.B.B.C.B.B.C.C.C.C.C.B.C.B.B.B.C.C.",
"C.C.C.C.C.C.C.C.C.C.B.C.B.B.c.d.a. . .a.d.d.d.a.| ~ ~  .d.g.a. ...c.B.B.C.C.C.C.B.B.C.C.B.B.C.C.C.C.",
"C.C.C.C.C.C.C.C.C.B.b.s... .a.d.g.g.s. .' 7 4 : ; ; ; ; 4 ^  .d.g.s. ...d.M.B.C.C.C.B.C.C.B.B.B.C.C.",
"C.C.C.C.C.C.B.g... ...s.d.d.t.} ^ 5 > ; - ; ; > : : > ; ; - ; 4 ^ ..d.c.s. . .d.B.C.C.C.B.C.C.B.B.C.",
"C.C.C.B.B.b.[ ..g.g.g.g.^ 4 * ; ; ; > > : > > > > > > > > > : : ; ; 4 ^  .g.g.s. . .g.C.C.C.B.C.C.C.",
"C.B.B.B.V.d.{ { | a.d.g.s.} 7 > ; ; ; : > : : : > ; > ; ; > > > : : : * * 4 | g.g.g.s. .d.C.C.B.C.C.",
"B.C.B.B.B.d.| | { ] [  .s.g.c.a.] 6 > - > > ; > > > > > > > > > ; ; ; 4 ^  .s.g.g.s.| ~ > C.C.B.C.C.",
"B.B.B.B.B.d.| | | | | { ] { ..f.z.g...` 5 ; ; > > : : : > > - ; 5 _  .d.c.c.d. .~ > ; : > B.B.C.B.C.",
"B.C.C.B.B.g.{ | | | | | | | ] ] | a.g.c.d.| ~ 4 ; ; ; ; ; 4 ^  .d.c.c.d. .^ 4 ; ; > > > 4 B.B.B.C.C.",
"B.B.B.B.B.g.| | | | | | | | | | { ] { ..s.c.g.s.{ 6 4 ^  .d.c.b.d.t.` 4 ; ; : > > > > 4 6 B.B.B.C.C.",
"C.B.B.B.B.b.] | | | | | | | | | | | } [ ] | a.g.c.g.d.c.b.d.a.' 5 > ; : > : > > 4 > > > ~ B.B.B.B.C.",
"C.B.B.B.B.B.g. .{ { | | | | | | | | | | | { ] {  .s.g.a.] 6 ; ; > > > 4 > > > > > > > : ..B.B.B.C.C.",
"C.B.C.B.B.B.C.B.V.L z ) } | | | | | | | | | | | [ ] ` - ; ; > > > > > > > > > > > > _ d.M.B.B.B.C.C.",
"B.C.B.B.B.B.B.B.C.h.F B h z ' [ | | | | | | | | | | [ ; > > > > > > > > 4 > ; = l c.B.B.B.B.B.B.B.C.",
"B.B.B.B.C.B.C.B.C.l.2.<.T Z f h z ' } | | | | | | | | > > 4 > > > > > > = . O & r.B.B.B.B.B.B.B.C.C.",
"C.B.B.B.B.C.C.C.C.n.*.<.4.4.:.F V d x / [ | | | | | { > 4 > > > > ; $   + 8 q 0 f.B.B.B.B.B.C.C.C.C.",
"B.C.B.C.C.C.C.C.C.N.%.:.<.3.4.=.3.T A g h z ' } | | { > > > : - X O # 9 r e 0 , B.B.B.B.B.C.C.C.C.C.",
"B.B.C.C.C.C.C.C.C.N.&.<.-.;.<.5.<.4.4.:.J V f c / ] _ > ; $ O @ 8 e r e 2 w q , B.B.C.C.C.C.C.C.C.C.",
"C.C.C.C.C.C.C.C.C.M.&.3.-.,.-.9.-.1.<.4.4.4.&.A M s p X o & q r e 2 w e e w r < B.C.C.B.C.C.C.C.C.C.",
"C.C.C.C.C.C.C.C.C.M.$.<.-.4.3.<.1.>.-.;.,.3.4.4.<.T f 8 r u e 9 1 e q r 0 t < j C.C.C.C.C.C.C.C.C.C.",
"C.C.C.C.C.C.C.C.C.M.$.>.7.-.,.3.3.3.3.;.q.5.1.2.<.4.H q r t < r r r q q 2 w y < C.C.C.C.C.C.C.C.C.C.",
"C.C.C.C.C.C.C.C.B.m.&.3.3.1.-.-.1.2.3.3.6.<.1.-.>.1.S 1 w 3 q r q 0 < 0 r q u r C.C.C.C.C.C.C.C.C.C.",
"C.C.C.C.C.C.C.C.B.v.$.3.4.3.3.<.1.7.8.>.6.<.3.3.2.1.v 0 q < r 0 3 1 r q q r e k C.C.C.C.C.C.C.C.C.C.",
"C.C.C.C.C.C.B.B.M.c.$.=.;.,.<.3.4.9.,.1.9.5.1.<.3.3.G u q t w w w r r r w 2 e , C.C.C.C.C.C.C.C.C.C.",
"C.C.C.C.C.C.B.B.B.x.%.4.<.;.5.,.,.5.3.3.<.2.1.5.>.2.S w w w r u 0 e e 1 0 r u , C.C.C.C.C.C.C.C.C.C.",
"C.C.C.C.C.C.B.B.M.x.%.3.4.3.5.>.=.6.1.3.3.3.3.<.1.>.b w r q r r 2 3 3 8 r r r a C.C.C.C.C.C.C.C.C.C.",
"C.C.C.C.C.C.B.B.B.v.I =.<.<.5.3.3.<.;.-.1.,.3.4.3.3.S q r q w 1 w u w 0 r 0 w < C.C.C.C.C.C.C.C.C.C.",
"C.C.C.C.C.C.B.B.B.v.&.,.;.=.q.2.3.3.3.:.6.=.=.1.3.3.G q r 3 < q r q w 0 9 0 u < C.C.C.C.C.C.C.C.C.C.",
"C.C.C.C.C.C.C.B.C.n.&.<.3.<.1.9.-.,.<.<.5.4.<.>.-.-.H < 0 t 0 r q 0 1 r q u r i C.C.C.C.C.C.C.C.C.C.",
"C.C.C.C.C.C.C.C.B.m.R ,.<.3.3.1.;.,.-.-.6.3.3.3.<.1.D 0 q t 0 w 2 t r r r 0 < i B.C.V.C.C.C.C.C.C.C.",
"C.C.C.C.B.C.C.C.C.k.T >.6.>.<.8.;.4.<.2.8.-.>.3.3.3.G r q 3 2 w 0 w r 0 < 2 r < B.B.B.C.C.C.C.C.C.C.",
"C.C.C.C.C.C.C.C.V.p.I *.8.1.;.9.5.<.<.4.3.<.1.>.>.1.G w 2 0 r r w w 1 9 0 w u < B.B.B.C.C.C.C.C.C.C.",
"C.C.C.C.C.C.C.C.C.C.V.O.E 3.<.<.1.8.>.2.<.4.<.<.2.>.n w q u r r w t r r & % 8 % B.B.B.B.C.C.C.B.C.C.",
"C.C.C.C.C.C.C.C.C.C.C.C.P :.4.4.4.<.<.>.8.,.<.3.3.3.H q u q 0 < r r 8 8 z r.z.f.w.z.B.B.B.C.C.B.C.C.",
"C.C.C.C.C.C.C.C.C.C.C.C.x.U ! 2.:.W W &.Q 1.-.>.<.3.H q w 2 0 r r & z c.C.C.C.C.C.V.B.B.B.B.B.C.C.C.",
"C.C.C.C.C.C.C.C.C.C.C.C.C.M.#.U @.u.j.i.X.W <.2.-.>.D 1 w w u r , r.C.C.C.C.C.C.C.C.B.B.B.B.C.B.C.C.",
"C.C.C.C.C.C.C.C.C.C.C.C.C.C.V.n.C.C.C.C.C.u.Y 3.4.<.H r r 8 8 o f.C.C.C.C.C.C.C.C.C.C.B.C.B.B.C.C.C.",
"C.C.C.C.C.C.C.C.C.C.C.C.C.C.C.C.C.C.C.C.C.C.l.P K K C 8 , i z / t.z.C.C.C.C.C.C.C.C.C.B.B.B.C.B.C.C.",
"C.C.C.C.C.C.C.C.C.C.C.C.C.C.C.C.C.C.C.C.C.C.C.M.o.i.+.t e.C.C.C.B.x.C.C.C.C.C.C.C.C.C.C.C.B.C.C.C.C.",
"C.C.C.C.C.C.C.C.C.C.C.C.C.C.C.C.C.C.C.C.C.C.C.C.k.C.C.C.r.C.C.C.C.C.C.C.C.C.C.C.C.C.C.C.B.B.C.C.C.C.",
"C.C.C.C.B.C.B.B.B.C.B.C.C.C.C.C.C.C.C.C.C.C.C.C.C.C.C.C.C.C.C.C.C.C.C.C.C.C.C.C.C.C.C.C.C.C.C.C.C.C.",
"C.C.C.C.C.B.B.C.B.B.C.B.B.B.C.C.C.C.C.C.C.C.C.C.C.C.C.C.C.C.C.C.C.C.C.C.C.C.C.C.C.C.C.C.C.C.C.C.C.C.",
"C.C.C.B.B.C.B.B.B.B.B.B.B.B.C.C.C.C.C.C.C.C.C.C.C.C.C.C.C.C.C.C.C.C.C.C.C.C.C.C.C.C.C.C.C.C.C.C.C.C.",
"C.C.B.C.B.B.C.B.B.B.B.B.B.C.B.C.C.C.C.C.C.C.C.C.C.C.C.C.C.C.C.C.C.C.C.C.C.C.C.C.C.C.C.C.C.C.C.C.C.C.",
"C.B.C.C.C.B.B.C.C.B.B.B.C.B.B.C.B.C.C.C.C.C.C.C.C.C.C.C.C.C.C.C.C.C.C.C.C.C.C.C.C.C.C.C.C.C.C.C.C.B."
};
