/* XPM */
static char *santa1702682027[] = {
/* columns rows colors chars-per-pixel */
"50 50 200 2 ",
"   c #010000",
".  c #212625",
"X  c #2D3131",
"o  c #4D000F",
"O  c #560006",
"+  c #5B0212",
"@  c #6C0014",
"#  c #760013",
"$  c #781527",
"%  c #6E1723",
"&  c #503438",
"*  c #64232F",
"=  c #7A2636",
"-  c #712C31",
";  c #6D3F42",
":  c #54504C",
">  c #5D5D5D",
",  c #4E5453",
"<  c #7A4348",
"1  c #6C5D5E",
"2  c #765858",
"3  c #55605E",
"4  c #5E6967",
"5  c #676D6B",
"6  c #676766",
"7  c #776868",
"8  c #737272",
"9  c gray48",
"0  c #7E7A75",
"q  c #6F736F",
"w  c #88020D",
"e  c #8D011C",
"r  c #870319",
"t  c #9B0015",
"y  c #95001B",
"u  c #9B001D",
"i  c #970012",
"p  c #8A1B1C",
"a  c #A30101",
"s  c #A4000C",
"d  c #BE0000",
"f  c #AF0016",
"g  c #A5011E",
"h  c #A80119",
"j  c #B6001B",
"k  c #BB001A",
"l  c #A81A1B",
"z  c #B41615",
"x  c #8C1C27",
"c  c #98132B",
"v  c #9A1C33",
"b  c #8D1027",
"n  c #A30624",
"m  c #AB0221",
"M  c #AD0C2B",
"N  c #A60B28",
"B  c #B30021",
"V  c #BC0023",
"C  c #B40929",
"Z  c #A31530",
"A  c #842B2C",
"S  c #892838",
"D  c #902136",
"F  c #9C263C",
"G  c #96303F",
"H  c #942F30",
"J  c #A62923",
"K  c #C00B0B",
"L  c #DA0001",
"P  c #C3001A",
"I  c #CB001B",
"U  c #D3001D",
"Y  c #DB001E",
"T  c #E90000",
"R  c #E20000",
"E  c #F40000",
"W  c #FF0000",
"Q  c #C30025",
"!  c #CA0026",
"~  c #D20026",
"^  c #DD0024",
"/  c #D60028",
"(  c #D90029",
")  c #E10025",
"_  c #E4002A",
"`  c #EB002C",
"'  c #F1002D",
"]  c #B04C3F",
"[  c #A9493E",
"{  c #9B2D41",
"}  c #863443",
"|  c #9B3749",
" . c #86484D",
".. c #9D4757",
"X. c #885557",
"o. c #8A4955",
"O. c #A24B5B",
"+. c #845B63",
"@. c #9C5965",
"#. c #A45664",
"$. c #8A6664",
"%. c #99646C",
"&. c #876D72",
"*. c #9F6E76",
"=. c #8C7478",
"-. c #8F7671",
";. c #A3636D",
":. c #A56161",
">. c #A36874",
",. c #A4757B",
"<. c #A57476",
"1. c #BF7579",
"2. c #938475",
"3. c #AA947C",
"4. c #8B7D80",
"5. c #9E7D81",
"6. c #7E8585",
"7. c #858585",
"8. c #8C8C8C",
"9. c #878888",
"0. c #9C898B",
"q. c #978987",
"w. c #9E948A",
"e. c #9A998E",
"r. c #929292",
"t. c #9C9595",
"y. c #9C9C9C",
"u. c #989A98",
"i. c #8C9293",
"p. c #AA8589",
"a. c #B88487",
"s. c #A99887",
"d. c #B09D89",
"f. c #AD8C92",
"g. c #A29C9D",
"h. c #A79698",
"j. c #B4A08A",
"k. c #AAA39B",
"l. c #BDAF9A",
"z. c #B39CA1",
"x. c #9FA3A3",
"c. c #A3A3A3",
"v. c #ABA4A3",
"b. c #A4ABAB",
"n. c #ACACAB",
"m. c #B8A8A9",
"M. c #BDB0A2",
"N. c #B7AEB0",
"B. c #B3B3B3",
"V. c #BCB5B6",
"C. c #BCBCBC",
"Z. c #B7BAB9",
"A. c #DA898D",
"S. c #C98589",
"D. c #EE969B",
"F. c #C6AD93",
"G. c #CEB699",
"H. c #C9B69A",
"J. c #D6B89A",
"K. c #C0A588",
"L. c #C6BABC",
"P. c #FFA9AE",
"I. c #FFA7AC",
"U. c #FFAFB4",
"Y. c #FFB2B7",
"T. c #DCC1A2",
"R. c #C3C1BF",
"E. c #ECCFAD",
"W. c #E9C8A7",
"Q. c #F4D5B3",
"!. c #F5D8B5",
"~. c #E7D8B7",
"^. c #FDE2BF",
"/. c #BEC0C2",
"(. c #C3C3C3",
"). c #CBCCCC",
"_. c #D7C6C9",
"`. c #CED0CF",
"'. c #DACFD1",
"]. c #CFD1D1",
"[. c #D3D3D3",
"{. c #DBDBDB",
"}. c #D5DAD9",
"|. c #FFE5C2",
" X c #FFEBC6",
".X c #FFEFCB",
"XX c #FFF1CC",
"oX c #DCE4E3",
"OX c #E3E3E3",
"+X c #E5E7E8",
"@X c #E4ECEA",
"#X c #EBECEC",
"$X c #E0E9E7",
"%X c #E5F0EE",
"&X c #ECEEF0",
"*X c #ECF8F7",
"=X c #ECF9F6",
"-X c #F5F5F5",
";X c #F6FCFD",
":X c #FDFDFD",
/* pixels */
":X:X:X:X:X:X:X:X:X:X:X:X:X:X:X:X:X:X:X:X:X:X:X:X:X:X:X:X:X:X:X:X:X:X:X:X:X:X:X:X:X:X:X:X:X:X:X:X:X:X",
":X:X:X:X:X:X:X:X:X:X:X:X:X:X:X:X:X:X:X:X:X:X:X:X(.+.} D } =.C.{.-X:X:X:X:X:X:X:X:X:X:X:X:X:X:X:X:X:X",
":X:X:X:X:X:X:X:X:X:X:X:X:X:X:X:X:X:X:X:X:X:X-X=.B _ _ _ ` ( Q n D X.(.:X:X:X:X:X:X:X:X:X:X-X:X:X:X:X",
":X:X:X:X:X:X:X:X:X:X:X:X:X:X:X:X:X:X:X:X[.t.} / _ / ( ( ( ( ( ) ` ` n g.:X:X:X:X:X:X-X:X-X:X-X-X:X:X",
":X:X:X:X:X:X:X:X:X:X:X:X:X:X:X:X:X:X&X+.n ~ _ ( ( / ( ( ( ( ( ( g V ` n L.:X:X:X:X:X:X-X:X-X-X:X:X:X",
":X:X:X:X:X:X:X:X:X:X:X:X:X:X:X:X:X:X< ) _ _ ^ ^ ( ^ U U ( ( ( ( ! y g ` = &X:X:X:X:X-X:X:X-X:X-X:X:X",
":X:X:X:X:X:X:X:X:X:X:X-X-X:X:X:X:Xh.! _ I N F Z m { ;.@.v P P k ~ ` e B ( 0.-X:X-X:X-X-X-X:X-X-X:X:X",
":X:X:X:X:X:X:X:X-X:X:X:X:X:X:X-X-XS Y f %.}.=X$X].-X:X:X%Xf.f.m.@.m ( @ ( x +X:X:X:X:X:X:X-X-X:X:X:X",
":X:X:X:X:X-X:X:X:X:X:X-X-X:X:X:X[.$ ,.V.:X:X:X:X:X:X:X:X:X:X:X:X:Xv.j w u ( v.:X:X:X-X:X:X:X:X-X-X:X",
":X:X:X-X:X:X-X:X-X:X:X:X:X:X:X:X7.$X:X:X:X:X:X:X:X:X:X:X:X:X:X:X:X:Xh.$.+ ^ 2 :X:X:X:X:X-X:X-X:X:X:X",
"-X:X-X-X-X-X-X:X-X:X:X:X:X:X:Xn.{.:X:X:X:X:X:X-X+X:X:X:X:X:X:X:X:X:X:X:Xt.%.h.i.[.:X:X:X:X:X-X:X:X:X",
":X-X-X:X:X-X-X-X:X-X:X:X:X:Xn.C.:X:X:X:X:X&XR.6 8 8 y.c.n.v.C.:X:X:X:X:X{.Z.:X:Xk.`.-X:X-X:X:X-X:X:X",
"-X-X:X-X-X-X-X:X-X:X:X:X-X#Xx.:X:X:X:X#Xw.3.q {.].8 #X:Xn.K.j.).:X:X:X:X:XB.[.:X:X9.-X-X:X-X-X:X:X:X",
":X-X-X-X-X-X-X:X-X-X-X:X-X).{.:X:X-X(.s.E.W.).:XX . . Z.[.J.|.j.k.Z.:X:X:XOXC.:X:Xk.-X-X-X-X:X-X-X:X",
"-X-X:X-X-X-X:X-X-Xh.$.`.&XR.x.+X:X8 s.!.^.Q.M.C.& X.X.7 s.|. X|.!.3.B.:X:XZ.OX:X:X8.-X-X-X-X-X-X:X:X",
":X-X-X-X-X-X-X-Xg.L W p A $.H.d.i.q.!.|.^. X2.;.Y.Y.Y.1.-.l.H.Q. XE.8 c.m.0 :X:X{.x.-X&X&X-X-X-X:X:X",
":X-X-X-X-X-X-X-XH W W d J ^.XXF./.M.|.|.Q.d.b.f.a.5.p.v.+X#X).w.G.!.q.y.J.T.e.c.r.-X&X-X&X-X-X-X:X:X",
":X:X-X-X:X-X-X-Xl W W T [ XXE.v.:X2.J.H.s.oX:X:X#XOX#X:X:X:X:X:XR.q.: }.F..X0 OX&X&X-X&X-X-X-X-X:X:X",
"-X:X:X-X-X-X-X:Xl W W W z ~.F.{.:Xy.y.(.:X:X:X:X:XZ.t.-X:X:X:X:X:Xc./.:Xk.F.M.&X-X&X-X&X-X-X-X-X:X:X",
":X-X-X-X-X:X:X-X .W W W W ] e.:X:X{.Z.:X:X:X:X:XC.(.OXc.(.{.{.(.c.[.:X:XOX6 #X&X#X-X-X-X-X-X-X:X:X:X",
"-X-X-X:X:X-X:X:X}.p L R K ; r.:X:X:X).c.Z.(.n.q y.@X].,.2 Z.C.[.:X:X:X:X:X8.-X-X-X-X-X-X-X:X:X-X:X:X",
":X-X-X:X:X:X:X:X&XB.(.Z.[.-Xv.:X:X:X:X-X{.[.OXp.A.a.S.A.m.:X:X:X:X:X:X:X:Xr.-X-X-X-X-X-X-X:X:X:X:X:X",
"-X:X:X:X:X:X:X:XOXZ.:X:X:X:X6.[.:X:X:X:X:X:X:Xa.P.P.P.,.+X:X:X:X:X:X:X:XV.7.-X-X:X-X:X-X:X:X:X:X:X:X",
":X-X:X:X:X:X:X:X:XB.C.+X[.=.% b.:X:X:X:X:X:X:Xh.D.D.<.).:X:X:X:X:X:X:X:XB./.-X:X-X:X:X:X:X:X:X:X:X:X",
":X:X:X:X:X:X:X:X:X:Xt.b m ^ I ,.:X:X:X:X:X:X:X9.7 7.oX:X:X:X:X:X:X:X:X:X).{.-X-X:X:X:X:X:X:X:X:X:X:X",
":X:X:X:X:X:X:X:X:X:X+Xc ' / ^ { *X:X:X:X:X:X:XOXy.[.:X:X:X:X:X:X:X:X:X:Xx.-X:X:X:X:X:X:X:X:X:X:X:X:X",
":X:X:X:X:X:X:X:X-X-X-Xh.Q _ ( P 5.:X:X{.#X:X:X:X:X:X:X:X:X:X:X:X$X:X:X{.1 -X:X-X:X:X:X:X:X:X:X:X:X:X",
":X:X:X:X:X:X:X:X-X-X#X#X&.V ` ) # 0.*X*Xb.:X:X:X:X:X:X:X:X:X:X:X=.N.0.v P  .#X:X:X:X:X:X:X:X:X:X:X:X",
":X:X:X:X:X:X-X-X&X#X#X+X#Xr.D y V P | %.S h.:X:X:X:X:X:X:X:X:XB.g P w ~ Y P 2 :X:X:X:X:X:X:X:X:X:X:X",
":X:X:X:X:X:X-X-X-X#X#X+X#X+X`.$ _ ) ^ ~ ) g p.%X:X:Xg.-.N.m.%.m ( _ V r @.z.V.r.[.:X:X:X:X:X:X:X:X:X",
":X:X:X:X:X:X:X-X&X#X#X#X#X#X=.~ ( ( ^ / ( ^ k = #...M P k k U ) / ( I &.:X:X:X:Xr.:X:X:X:X:X:X:X:X:X",
":X:X:X:X:X:X-X-X-X-X#X#X#XOXD _ ( / ( ( / ^ ! t O O ` ( ( ( ( ( ( ( P m.:X:XoXoXb.-X:X:X:X:X:X:X:X:X",
":X:X:X:X:X:X-X:X-X-X-X-X&Xn.Q ( / / ( ( ( ( m B + + ( ( / ( ( ( / ( I 0.].:.z K A -X:X:X:X:X:X:X:X:X",
":X:X:X:X:X:X:X-X-X-X-X-X-X+.) ( ( ( ( / ( _ u Q y m ( ( ( / / ( ( ( ( n w E W W E 0.:X:X:X:X:X:X:X:X",
":X:X:X:X:X:X:X:X:X-X-X-X&XS ` / ( ( / ( ( ( u Q   o _ ( ( ( ( ( ( ( ( ( s W W W W H :X:X:X:X:X:X:X:X",
":X:X:X:X-X:X:X-X-X:X:X:X[.m _ ( / ( ( ( ( / y ( Q ! ( ( / ( ( ( ( ( ( ( s T T W W z -X:X:X:X:X:X:X:X",
":X:X:X:X:X:X-X:X:X-X:X:Xn.! ( ( ^ / ( / ( / y / e B ( ( ( ( ( ( ( ( ( ) e a a W W  .-X:X:X:X:X:X:X:X",
":X:X:X:X:X:X:X:X:X:X:X:X7 ~ _ ( ( ( / ( / / g g   @ _ ( ( ( ( ^ ^ I j { V.).m.A X.[.-X-X:X:X:X:X:X:X",
":X:X:X:X:X:X:X:X:X:X:Xy.(.%.N j P I U U Y Y t ! t I U I P k m Z | *.C.*X:X:X:Xu.-X-X-X-X:X-X-X:X:X:X",
":X:X:X:X:X:X:X:X:X:X:X8.:X:XoXV.f.,.#.O.O.O.o...#.;.,.p.z.L.].$X;X:X:X:X:X:XZ.).&X-X-X-X-X-X:X-X:X:X",
":X:X:X:X:X:X:X:X:X:X:Xr.:X:X:X:X:X:X:X:X:X:X:X:X:X:X:X:X:X:X:X:X:X:X:X:X:Xn.c.&X-X-X-X-X:X:X-X:X:X:X",
":X:X:X:X:X:X:X:X:X:X:X#X7.).:X:X:X:X:X:X:X:X:X:X:X:X:X:X:X:X:X:X:X:X#Xn.9.).-X-X-X-X-X-X-X-X:X-X:X:X",
":X:X:X:X:X:X:X:X:X:X:X:X:XL.u.8.r.u.m._.'.{.oX%X@X#X$XoX{.'.L.F.4.9.g.{.-X-X-X:X:X:X-X-X-X-X-X:X:X:X",
":X:X:X:X:X:X:X:X:X:X-X:X:X:X:X:X:X`.7 - $ r C M Z c C C b - < 2 B.:X:X-X:X:X:X:X:X:X:X:X:X-X:X:X:X:X",
":X:X:X:X:X-X:X:X:X:X:X:X;X:X:X;X:X:X-X-X].& c N $ & c M * b.:X:X:X:X:X:X:X:X:X:X:X:X:X:X-X-X:X:X:X:X",
":X:X:X:X:X:X:X-X-X-X-X:X:X-X:X-X:X-X:X:X;X5 4 4 5 9.5 3 , ).:X:X:X:X:X:X:X:X:X:X:X:X:X:X:X:X:X:X:X:X",
":X:X:X:X:X-X-X:X-X:X:X-X-X:X-X:X:X:X:X:XZ.> 9 y.8 ].9 i.> 9.#X:X:X:X:X:X:X:X:X:X:X:X:X:X:X:X:X:X:X:X",
":X:X:X-X-X:X-X-X-X-X-X-X-X-X-X:X;X:X:XOX6 y.9.y.8 n.7.r.8.r.9.:X:X:X:X:X:X:X:X:X:X:X:X:X:X:X:X:X:X:X",
":X:X:X-X:X-X-X:X-X-X-X-X-X-X-X:X:X:X:X&X6 r.y.8.q r.=.u.y.9 n.:X:X:X:X:X:X:X:X:X:X:X:X:X:X:X:X:X:X:X",
":X:X:X-X-X:X:X-X:X-X-X:X-X:X:X:X-X:X:X:X:X:X:X:X:X:X:X:X:X:X:X:X:X:X:X:X:X:X:X:X:X:X:X:X:X:X:X:X:X-X"
};
